<?xml version="1.0" encoding="utf-8"?>
<!-- Generator: Adobe Illustrator 21.0.2, SVG Export Plug-In . SVG Version: 6.00 Build 0)  -->
<svg version="1.1" id="Laag_1" xmlns="http://www.w3.org/2000/svg" xmlns:xlink="http://www.w3.org/1999/xlink" x="0px" y="0px"
	 viewBox="0 0 200 200" style="enable-background:new 0 0 200 200;" xml:space="preserve">
<style type="text/css">
	.st0{fill:#222222;}
	.st1{fill:#FFFFFF;}
</style>
<rect class="st0" width="200" height="200"/>
<g>
	<path class="st1" d="M85.8,78.9V56.6c0-2.1-1.7-3.8-3.8-3.8H66.3c-2.1,0-3.7,1.7-3.7,3.8v37.3c0,1,0.7,1.9,1.6,2.2l48.5,22.3
		c1,0.3,1.6,1.2,1.6,2.2v22.3c0,2.1,1.7,3.8,3.8,3.8h15.8c2.1,0,3.8-1.7,3.8-3.8v-37.3c0-1-0.7-1.9-1.6-2.2L87.4,81.1
		C86.4,80.8,85.8,79.9,85.8,78.9z"/>
	<path class="st1" d="M64.9,125.5l19.3,8.5c0.9,0.3,1.5,1.3,1.5,2.4v8.2c0,1.4-0.9,2.5-2,2.5H64.5c-1.1,0-2-1.1-2-2.5v-16.7
		C62.5,126.3,63.7,125.1,64.9,125.5z"/>
	<path class="st1" d="M135.1,74.9l-19.3-8.5c-0.9-0.3-1.5-1.3-1.5-2.4v-8.2c0-1.4,0.9-2.5,2-2.5h19.3c1.1,0,2,1.1,2,2.5v16.7
		C137.5,74.1,136.3,75.3,135.1,74.9z"/>
</g>
</svg>
